HIERARCHY
ROOT root
{
	OFFSET 0.000000 0.000000 0.000000
	CHANNELS 6 Xposition Yposition Zposition Zrotation Yrotation Xrotation
	JOINT lhip
	{
		OFFSET 0.058581 -0.082280 -0.017664
		CHANNELS 3 Zrotation Yrotation Xrotation
		JOINT lknee
		{
			OFFSET 0.043451 -0.386469 0.008037
			CHANNELS 3 Zrotation Yrotation Xrotation
			JOINT lankle
			{
				OFFSET -0.014790 -0.426874 -0.037428
				CHANNELS 3 Zrotation Yrotation Xrotation
				JOINT ltoe
				{
					OFFSET 0.041054 -0.060286 0.122042
					CHANNELS 3 Zrotation Yrotation Xrotation
					End Site
					{
						OFFSET 0.000000 0.000000 0.000000
					}
				}
			}
		}
	}
	JOINT rhip
	{
		OFFSET -0.060310 -0.090513 -0.013543
		CHANNELS 3 Zrotation Yrotation Xrotation
		JOINT rknee
		{
			OFFSET -0.043257 -0.383688 -0.004843
			CHANNELS 3 Zrotation Yrotation Xrotation
			JOINT rankle
			{
				OFFSET 0.019056 -0.420046 -0.034562
				CHANNELS 3 Zrotation Yrotation Xrotation
				JOINT rtoe
				{
					OFFSET -0.034840 -0.062106 0.130323
					CHANNELS 3 Zrotation Yrotation Xrotation
					End Site
					{
						OFFSET 0.000000 0.000000 0.000000
					}
				}
			}
		}
	}
	JOINT lowerback
	{
		OFFSET 0.004439 0.124404 -0.038385
		CHANNELS 3 Zrotation Yrotation Xrotation
		JOINT upperback
		{
			OFFSET 0.004488 0.137956 0.026820
			CHANNELS 3 Zrotation Yrotation Xrotation
			JOINT chest
			{
				OFFSET -0.002265 0.056032 0.002855
				CHANNELS 3 Zrotation Yrotation Xrotation
				JOINT lowerneck
				{
					OFFSET -0.013390 0.211636 -0.033468
					CHANNELS 3 Zrotation Yrotation Xrotation
					JOINT upperneck
					{
						OFFSET 0.010113 0.088937 0.050410
						CHANNELS 3 Zrotation Yrotation Xrotation
						End Site
						{
							OFFSET 0.000000 0.000000 0.000000
						}
					}
				}
				JOINT lclavicle
				{
					OFFSET 0.071702 0.114000 -0.018898
					CHANNELS 3 Zrotation Yrotation Xrotation
					JOINT lshoulder
					{
						OFFSET 0.122921 0.045205 -0.019046
						CHANNELS 3 Zrotation Yrotation Xrotation
						JOINT lelbow
						{
							OFFSET 0.255332 -0.015649 -0.022946
							CHANNELS 3 Zrotation Yrotation Xrotation
							JOINT lwrist
							{
								OFFSET 0.265709 0.012698 -0.007375
								CHANNELS 3 Zrotation Yrotation Xrotation
								End Site
								{
									OFFSET 0.000000 0.000000 0.000000
								}
							}
						}
					}
				}
				JOINT rclavicle
				{
					OFFSET -0.082954 0.112472 -0.023707
					CHANNELS 3 Zrotation Yrotation Xrotation
					JOINT rshoulder
					{
						OFFSET -0.113228 0.046853 -0.008472
						CHANNELS 3 Zrotation Yrotation Xrotation
						JOINT relbow
						{
							OFFSET -0.260127 -0.014369 -0.031269
							CHANNELS 3 Zrotation Yrotation Xrotation
							JOINT rwrist
							{
								OFFSET -0.269108 0.006794 -0.006027
								CHANNELS 3 Zrotation Yrotation Xrotation
								End Site
								{
									OFFSET 0.000000 0.000000 0.000000
								}
							}
						}
					}
				}
			}
		}
	}
}
MOTION
Frames: 14
Frame Time: 0.033333
-2.142943 0.205887 0.812161 132.923747 3.032823 83.694550 21.711155 16.543438 -13.427720 -5.430977 14.534886 71.701446 7.031681 19.525381 -50.882519 0.000000 -0.000000 0.000000 -23.063580 -26.002552 -42.504802 7.549414 -15.205516 55.034036 8.533119 2.839347 -8.556923 0.000000 -0.000000 0.000000 -3.570880 -2.057875 12.789971 2.570906 -2.739884 -2.230479 -0.790443 0.383807 -1.467540 3.744776 -21.231903 -3.938089 1.394868 -28.469089 15.829293 -19.723196 -1.420248 8.814637 -52.782922 -4.904848 21.450422 -133.248218 -64.771183 121.901325 17.016488 3.441404 -45.715517 26.175110 11.739296 0.848603 33.596991 27.192826 -1.029274 -79.524679 52.222038 -77.063580 -18.284941 23.727386 18.304278 
-2.142952 0.205885 0.812167 132.923692 3.032751 83.696391 21.709608 16.543527 -13.430310 -5.427722 14.536301 71.703869 7.030827 19.523536 -50.885031 0.000000 -0.000000 0.000000 -23.062351 -26.004102 -42.510978 7.544849 -15.207340 55.041538 8.533132 2.844578 -8.552039 0.000000 -0.000000 0.000000 -3.571079 -2.056601 12.788108 2.570350 -2.741122 -2.227186 -0.788554 0.383087 -1.470983 3.742921 -21.229767 -3.938804 1.396400 -28.467881 15.830268 -19.724920 -1.424627 8.807336 -52.782540 -4.894473 21.449348 -133.250371 -64.769717 121.877618 17.025315 3.443191 -45.687619 26.174396 11.741310 0.846721 33.599492 27.189793 -1.028282 -79.528674 52.222101 -77.075468 -18.276130 23.731409 18.315586 
-2.142953 0.205885 0.812167 132.923705 3.032734 83.696437 21.709531 16.543517 -13.430396 -5.427577 14.536359 71.703993 7.030847 19.523495 -50.885135 0.000000 -0.000000 0.000000 -23.062328 -26.004232 -42.511322 7.544645 -15.207406 55.042080 8.533261 2.844848 -8.551544 0.000000 -0.000000 0.000000 -3.571130 -2.056554 12.788082 2.570358 -2.741151 -2.227144 -0.788503 0.383069 -1.471065 3.742913 -21.229663 -3.938828 1.396400 -28.467864 15.830346 -19.725002 -1.424713 8.807110 -52.782481 -4.894228 21.449334 -133.250227 -64.769657 121.876827 17.025542 3.443190 -45.686937 26.174466 11.741311 0.846648 33.599537 27.189694 -1.028206 -79.528805 52.222140 -77.075765 -18.275967 23.731563 18.315772 
-2.142953 0.205885 0.812167 132.923706 3.032734 83.696437 21.709530 16.543517 -13.430398 -5.427573 14.536359 71.703996 7.030848 19.523494 -50.885137 0.000000 -0.000000 0.000000 -23.062328 -26.004240 -42.511335 7.544637 -15.207407 55.042103 8.533268 2.844859 -8.551516 0.000000 -0.000000 0.000000 -3.571131 -2.056552 12.788081 2.570358 -2.741152 -2.227141 -0.788501 0.383069 -1.471069 3.742911 -21.229659 -3.938828 1.396401 -28.467861 15.830349 -19.725005 -1.424718 8.807102 -52.782478 -4.894218 21.449331 -133.250220 -64.769653 121.876797 17.025549 3.443189 -45.686914 26.174467 11.741312 0.846646 33.599539 27.189690 -1.028206 -79.528808 52.222142 -77.075775 -18.275958 23.731568 18.315780 
-2.142953 0.205885 0.812167 132.923706 3.032734 83.696437 21.709529 16.543517 -13.430398 -5.427573 14.536359 71.703996 7.030848 19.523494 -50.885137 0.000000 -0.000000 0.000000 -23.062328 -26.004241 -42.511336 7.544637 -15.207408 55.042105 8.533268 2.844859 -8.551514 0.000000 -0.000000 0.000000 -3.571131 -2.056552 12.788081 2.570358 -2.741152 -2.227141 -0.788501 0.383069 -1.471069 3.742911 -21.229658 -3.938828 1.396401 -28.467861 15.830349 -19.725005 -1.424719 8.807101 -52.782477 -4.894217 21.449331 -133.250219 -64.769652 121.876795 17.025549 3.443189 -45.686913 26.174467 11.741312 0.846646 33.599539 27.189689 -1.028206 -79.528809 52.222142 -77.075775 -18.275957 23.731569 18.315780 
-2.144382 0.204746 0.812963 133.018622 2.916709 83.837276 21.433646 16.465100 -13.773976 -5.112326 14.727308 72.099420 7.125114 19.557785 -51.198872 0.000000 -0.000000 0.000000 -23.082063 -26.222479 -43.359859 7.123572 -15.419056 56.300736 8.938579 3.251030 -7.813196 0.000000 -0.000000 0.000000 -3.852263 -1.988566 12.875436 2.718802 -2.711675 -2.490553 -0.906736 0.223389 -1.484535 4.293496 -20.609159 -4.329751 0.822344 -28.625508 16.423478 -19.712437 -0.842737 8.871461 -52.613048 -5.330879 21.646233 -132.343723 -64.684745 120.419118 17.383088 3.111824 -45.134870 26.713132 11.284953 0.487785 33.994062 27.409083 -0.086705 -79.840991 52.107348 -77.277187 -18.093720 24.070324 18.318599 
-2.144390 0.204740 0.812962 133.018986 2.916481 83.837124 21.432972 16.465284 -13.774278 -5.108629 14.728292 72.102124 7.125195 19.554237 -51.201517 0.000000 -0.000000 0.000000 -23.080917 -26.224641 -43.363161 7.117844 -15.420509 56.307930 8.938814 3.258269 -7.809651 0.000000 -0.000000 0.000000 -3.852978 -1.987189 12.874711 2.719101 -2.712795 -2.487745 -0.905429 0.223969 -1.486064 4.292110 -20.606561 -4.329488 0.823040 -28.626157 16.422507 -19.715741 -0.845305 8.862137 -52.609892 -5.324222 21.646645 -132.336479 -64.681754 120.407510 17.380392 3.111611 -45.132530 26.714328 11.285323 0.486914 33.993988 27.406721 -0.087357 -79.845504 52.108853 -77.279092 -18.093174 24.069792 18.317371 
-2.144390 0.204740 0.812962 133.019017 2.916465 83.837113 21.432954 16.465303 -13.774294 -5.108521 14.728318 72.102229 7.125196 19.554103 -51.201617 0.000000 -0.000000 0.000000 -23.080893 -26.224754 -43.363270 7.117648 -15.420565 56.308191 8.938829 3.258531 -7.809517 0.000000 -0.000000 0.000000 -3.853003 -1.987143 12.874699 2.719109 -2.712838 -2.487635 -0.905391 0.223987 -1.486116 4.292066 -20.606436 -4.329510 0.823064 -28.626152 16.422458 -19.715863 -0.845390 8.861791 -52.609747 -5.324003 21.646644 -132.336152 -64.681630 120.407108 17.380217 3.111578 -45.132580 26.714368 11.285325 0.486869 33.993984 27.406658 -0.087389 -79.845653 52.108908 -77.279115 -18.093121 24.069736 18.317303 
-2.144390 0.204740 0.812962 133.019024 2.916461 83.837109 21.432952 16.465309 -13.774298 -5.108503 14.728323 72.102252 7.125195 19.554077 -51.201638 0.000000 -0.000000 0.000000 -23.080892 -26.224779 -43.363291 7.117611 -15.420576 56.308244 8.938833 3.258582 -7.809492 0.000000 -0.000000 0.000000 -3.853008 -1.987135 12.874699 2.719110 -2.712847 -2.487612 -0.905386 0.223992 -1.486125 4.292059 -20.606405 -4.329517 0.823068 -28.626148 16.422447 -19.715884 -0.845402 8.861720 -52.609717 -5.323964 21.646644 -132.336075 -64.681603 120.407028 17.380168 3.111569 -45.132608 26.714376 11.285324 0.486858 33.993983 27.406649 -0.087394 -79.845680 52.108919 -77.279111 -18.093101 24.069719 18.317291 
-2.144390 0.204740 0.812962 133.019025 2.916460 83.837108 21.432952 16.465310 -13.774298 -5.108502 14.728323 72.102254 7.125195 19.554074 -51.201640 0.000000 -0.000000 0.000000 -23.080892 -26.224782 -43.363292 7.117608 -15.420577 56.308249 8.938833 3.258587 -7.809489 0.000000 -0.000000 0.000000 -3.853008 -1.987135 12.874700 2.719110 -2.712847 -2.487610 -0.905385 0.223993 -1.486126 4.292058 -20.606401 -4.329518 0.823069 -28.626147 16.422446 -19.715886 -0.845404 8.861713 -52.609713 -5.323960 21.646643 -132.336066 -64.681600 120.407021 17.380161 3.111567 -45.132613 26.714377 11.285324 0.486857 33.993983 27.406648 -0.087395 -79.845681 52.108920 -77.279109 -18.093098 24.069717 18.317290 
-2.144390 0.204740 0.812962 133.019025 2.916460 83.837108 21.432952 16.465310 -13.774298 -5.108502 14.728323 72.102254 7.125195 19.554074 -51.201640 0.000000 -0.000000 0.000000 -23.080892 -26.224782 -43.363293 7.117607 -15.420577 56.308250 8.938833 3.258588 -7.809489 0.000000 -0.000000 0.000000 -3.853009 -1.987135 12.874700 2.719110 -2.712847 -2.487610 -0.905385 0.223993 -1.486126 4.292058 -20.606401 -4.329518 0.823069 -28.626146 16.422446 -19.715886 -0.845404 8.861712 -52.609712 -5.323960 21.646643 -132.336065 -64.681600 120.407020 17.380160 3.111567 -45.132614 26.714377 11.285324 0.486857 33.993983 27.406648 -0.087395 -79.845681 52.108920 -77.279109 -18.093098 24.069717 18.317289 
-2.146191 0.203968 0.812250 133.086792 2.747147 83.804637 21.238368 16.579148 -13.897594 -4.930674 14.840954 72.548548 7.209806 19.419312 -51.562203 0.000000 -0.000000 0.000000 -23.153927 -26.523101 -43.832397 6.613080 -15.600055 57.225693 8.964729 3.862277 -7.798255 0.000000 -0.000000 0.000000 -3.961925 -1.922344 13.377101 2.772001 -2.647353 -2.974365 -1.124722 0.253593 -1.348632 4.538599 -19.867696 -4.614824 0.327976 -28.823327 16.975307 -19.540457 -0.503401 8.872782 -52.437636 -5.734324 21.692299 -131.158280 -64.379748 120.372505 16.551298 2.707800 -46.934514 26.809436 10.850965 0.136263 34.762645 27.687815 0.465898 -80.110700 52.237244 -76.311515 -18.252850 23.993092 17.217426 
-2.146206 0.203977 0.812216 133.086896 2.747423 83.804975 21.237971 16.579209 -13.898910 -4.921572 14.843869 72.554667 7.208197 19.408678 -51.568135 0.000000 -0.000000 0.000000 -23.149887 -26.526374 -43.837449 6.601018 -15.601959 57.234875 8.963206 3.877267 -7.799113 0.000000 -0.000000 0.000000 -3.962247 -1.920481 13.369057 2.772974 -2.650007 -2.958547 -1.121466 0.255177 -1.352027 4.536157 -19.864460 -4.611681 0.334592 -28.820306 16.962680 -19.553628 -0.507463 8.841084 -52.424857 -5.716627 21.694800 -131.138775 -64.371540 120.362673 16.538027 2.705881 -46.953113 26.815681 10.853815 0.140364 34.753499 27.688334 0.459912 -80.116430 52.241528 -76.310248 -18.260979 23.987193 17.208836 
-2.146209 0.203977 0.812214 133.086792 2.747508 83.805123 21.237884 16.579180 -13.899350 -4.920336 14.844333 72.555803 7.208032 19.407495 -51.568992 0.000000 -0.000000 0.000000 -23.149232 -26.526548 -43.838400 6.599487 -15.602251 57.236252 8.962956 3.878973 -7.799352 0.000000 -0.000000 0.000000 -3.962310 -1.920297 13.368203 2.773124 -2.650242 -2.957037 -1.121177 0.255286 -1.352426 4.535987 -19.863974 -4.611339 0.335172 -28.820022 16.961438 -19.555195 -0.507657 8.837548 -52.423154 -5.714883 21.695038 -131.136761 -64.370532 120.362621 16.535968 2.705280 -46.956225 26.816618 10.853977 0.140866 34.752503 27.688628 0.459355 -80.117252 52.242090 -76.309772 -18.262142 23.986525 17.207159 
